<svg width="167" height="163" viewBox="0 0 167 163" fill="none" xmlns="http://www.w3.org/2000/svg">
<g clip-path="url(#clip0_1312_846)">
<path d="M73.7011 163H76.5L79.2988 162.689L84.8966 161.756L90.1834 160.511L92.9823 159.889L95.4702 158.956L97.9581 158.023C97.6471 157.401 97.9581 156.779 98.269 156.156C100.135 153.046 102.312 149.624 104.489 146.513C105.111 145.58 106.355 145.269 107.288 145.891C108.221 146.513 108.532 147.758 107.91 148.691C106.666 151.179 105.111 153.668 103.867 155.845C109.465 153.668 114.751 151.179 119.727 147.758C123.459 146.202 127.502 143.403 130.923 140.914C132.478 139.67 134.033 138.115 135.587 136.87C136.831 135.626 137.764 134.382 138.697 133.448C139.941 131.271 141.185 129.094 142.118 127.227C144.606 124.427 147.094 121.628 149.271 118.828C151.137 116.34 153.003 113.851 154.558 111.052C159.844 102.342 163.887 93.0095 166.997 83.3664C166.064 85.2328 165.131 87.7214 164.198 89.8989C163.265 92.3874 162.332 94.876 161.088 97.3645C159.844 99.8531 158.601 102.342 157.357 104.208C155.802 106.385 154.247 107.941 152.692 109.185C152.692 108.252 152.381 107.319 152.381 106.385C151.448 106.697 149.893 108.252 148.649 109.496C149.271 107.008 149.893 104.208 150.204 101.719C151.137 99.8531 152.07 97.9866 152.381 96.1202C153.314 93.3206 153.625 90.8321 153.625 89.2767C153.314 87.7214 152.692 86.7882 151.448 87.0992H151.137C151.137 79.0115 149.893 71.2347 147.405 63.458C145.85 57.5477 143.362 51.6374 140.252 46.0382C137.764 41.9943 134.966 38.2614 131.856 34.8397C124.392 27.9962 115.062 21.4637 105.111 17.4198C100.135 15.5534 95.1592 13.9981 90.1834 12.7538C97.0251 12.4427 104.178 12.7538 111.02 13.687C107.91 12.7538 104.8 11.8206 101.379 11.5095C99.824 11.1985 98.269 10.8874 96.4031 10.8874L91.4273 10.5763C89.8724 10.2653 88.0065 10.2653 86.4515 10.2653C84.8966 10.2653 83.0307 10.2653 81.4757 10.2653L76.5 10.5763C75.567 10.5763 74.634 10.5763 74.0121 10.8874H73.7011H73.0791C75.256 10.5763 77.4329 9.9542 79.6098 9.64313C77.1219 9.9542 74.323 10.5763 71.8352 10.8874C71.2132 10.8874 70.5912 10.8874 69.6582 10.8874C75.567 9.02099 82.0977 7.46565 88.3175 6.53244C95.7811 5.91031 97.9581 4.66603 97.0251 3.11069C96.4031 1.55534 92.6713 0 89.2504 0C80.8538 0.311069 72.7681 1.24427 64.9934 3.42176C63.1275 3.73282 61.2616 4.66603 59.0847 5.28817C57.2188 5.91031 55.3528 6.53244 53.4869 7.46565C51.621 8.39886 49.7551 9.02099 48.2001 9.9542C46.3342 10.8874 44.7793 11.8206 42.9134 12.7538C41.3584 13.687 39.8035 14.6202 38.2486 15.8645C36.6936 17.1088 35.1387 18.042 33.5838 19.2863C30.1629 21.7748 27.364 24.2634 24.8761 27.063C23.6322 28.3073 22.3882 29.8626 21.1443 31.4179C20.8333 31.729 20.5223 32.0401 19.9003 32.3511C18.3454 33.9065 17.1014 35.4618 15.8575 37.0172C14.6135 38.5725 13.6806 40.1279 12.4366 41.9943C11.5037 43.2385 10.8817 44.4828 10.2597 46.0382C10.5707 45.416 10.8817 44.7939 11.1927 44.4828C9.94874 46.9714 8.39381 49.4599 7.46085 52.2595C4.35098 59.1031 2.79604 66.8798 2.79604 74.6565C2.48506 77.4561 1.55209 80.2557 0.619134 83.0553C0.308147 84.6107 -0.00284025 86.166 0.308147 88.0324C0.619134 89.8988 1.24111 91.4542 2.48506 93.3206C1.24111 83.0553 2.48506 72.7901 5.59492 63.1469C6.83887 59.1031 8.7048 55.0592 10.5707 51.0153L10.2597 51.6374L9.32677 56.6145L8.70479 59.1031L8.08282 61.5916L7.14986 66.8798C6.52789 74.0343 6.2169 80.8779 7.14986 87.7214C7.14986 91.7653 7.77183 96.4313 8.39381 100.475C8.7048 102.031 9.32677 103.586 9.63776 105.141C7.46085 101.097 5.59492 97.0534 4.35098 92.6985C4.97295 95.8092 5.59493 98.9198 6.52789 102.031C7.14986 103.586 7.46085 105.141 8.08282 106.697L9.94874 111.052C10.5707 112.607 11.1927 113.851 12.1257 115.406C13.0586 116.962 13.6806 118.206 14.3026 119.761C15.2355 121.006 16.1685 122.561 17.1014 123.805C17.4124 124.427 18.0344 125.361 18.3454 125.983L19.9003 128.16C18.3454 126.294 16.4795 124.116 14.6135 121.939C18.6564 127.538 23.0102 132.515 28.297 136.87C20.5223 130.649 13.3696 123.494 7.46085 115.718C3.41802 109.496 1.24111 108.252 0.308147 109.807C-0.313827 111.052 -0.0028402 115.095 1.55209 117.895C5.59492 125.05 10.2597 131.582 15.8575 137.181C17.1014 138.737 18.6564 139.981 20.2113 141.225C21.7662 142.469 23.0102 144.025 24.5651 144.958C26.1201 146.202 27.675 147.447 29.2299 148.38C30.7849 149.313 32.6508 150.557 34.2057 151.49C35.7607 152.424 37.6266 153.357 39.4925 154.29C41.3584 155.223 42.9134 156.156 44.7793 156.779C48.5111 158.023 52.243 159.578 55.9748 160.511C58.1517 161.134 60.0176 161.445 62.1946 161.756C64.0605 162.067 65.6154 162.378 67.4813 162.378C69.6582 163 71.5242 163 73.7011 163ZM83.0307 144.336L82.4087 145.269C82.0977 145.58 82.0977 145.891 81.7867 145.891C82.0977 145.891 82.7197 145.891 83.0307 145.891C82.7197 145.891 82.0977 145.891 81.7867 145.891C81.4757 146.202 80.8538 146.202 80.5428 146.202H80.8538H80.5428H80.2318C80.2318 146.202 80.2318 146.202 80.5428 146.202C79.9208 146.202 79.2988 146.202 78.9878 145.58C78.3659 145.58 77.7439 145.269 76.8109 145.269C75.878 145.269 74.945 144.958 74.323 144.958C73.7011 145.269 73.0791 145.269 72.1461 144.647C70.2802 144.336 68.4143 144.025 66.5484 143.403C65.9264 143.092 65.3044 143.092 64.6824 142.781C63.7495 142.469 62.8165 141.847 62.1946 141.536C61.5726 141.225 60.9506 140.914 60.6396 140.292C60.0176 140.914 59.7067 141.536 59.0847 142.158C58.4627 143.092 57.8407 144.025 57.2188 144.647C56.9078 144.958 56.5968 145.269 56.2858 145.58L55.6638 146.202L55.0419 146.513C54.1089 146.824 53.1759 145.891 53.1759 145.269V144.336C53.1759 144.025 53.4869 143.714 53.4869 143.403C53.7979 143.092 53.7979 142.469 54.1089 142.158C54.4199 141.225 55.0419 140.603 55.6638 139.981C56.2858 139.359 56.5968 138.737 57.2188 137.803C57.8407 136.87 58.1517 136.248 58.7737 135.315C59.3957 134.382 60.6396 134.071 61.5726 134.693C61.8836 135.004 62.5055 135.626 62.5055 135.937C62.5055 136.559 62.5055 137.181 62.1946 137.492C61.8836 137.803 61.5726 138.426 61.2616 138.737C61.8836 138.737 62.1946 139.048 62.8165 139.048C63.4385 139.359 64.3715 139.67 64.9934 139.981C68.7253 141.536 72.7681 143.092 76.8109 143.714C75.567 143.403 74.945 143.714 74.323 144.025C75.256 144.025 75.878 144.336 76.5 144.336C77.1219 144.336 77.7439 144.336 78.3659 144.336V144.025C78.0549 143.403 78.0549 143.092 78.0549 142.469L78.3659 141.536C78.6769 140.914 78.6769 139.981 78.9878 139.359C79.2988 138.737 79.6098 138.426 79.9208 137.803L80.5428 137.181L80.8538 136.87C81.1648 136.559 81.4757 136.248 81.7867 136.248C82.0977 135.937 82.4087 135.937 83.0307 135.937C83.9636 135.937 84.8966 136.559 85.2076 137.492C85.2076 137.803 85.2076 138.115 85.2076 138.426C85.2076 139.048 84.8966 139.67 84.2746 140.292L83.9636 140.603C83.6527 140.914 83.3417 141.536 83.0307 141.847C82.7197 142.469 82.0977 143.092 81.7867 143.714L83.0307 144.336ZM70.5912 84.2996C70.5912 83.9885 70.9022 83.6775 70.9022 83.3664C71.2132 82.7443 71.5242 82.4332 71.5242 81.8111C71.8352 81.1889 72.4571 80.5668 72.7681 79.9447C73.0791 79.3225 73.7011 78.7004 74.0121 78.0782C74.323 77.7672 74.323 77.4561 74.634 77.145C74.945 76.834 75.256 76.2118 75.878 75.9008C76.189 75.5897 76.8109 75.5897 77.4329 75.5897C78.6769 75.5897 79.6098 76.2118 79.9208 77.4561C80.2318 78.0782 79.9208 78.7004 79.9208 79.3225C79.6098 79.6336 79.2988 79.9447 79.2988 80.5668C78.9878 80.8779 78.6769 81.1889 78.6769 81.5C78.3659 82.1221 77.7439 82.7443 77.4329 83.0553C76.8109 83.6775 76.5 84.2996 75.878 84.9218L75.567 85.2328C75.256 85.5439 74.945 85.855 74.634 85.855L73.7011 86.4771C73.0791 86.7882 72.1461 86.7882 71.5242 86.4771C70.5912 86.166 70.2802 85.2328 70.5912 84.2996ZM84.8966 113.851C84.5856 114.162 84.5856 114.473 84.2746 115.095C83.6527 116.029 83.0307 116.651 82.4087 117.273L82.0977 117.584V118.206C81.7867 118.517 81.4757 118.828 81.4757 119.139C80.8538 119.761 80.5428 120.695 79.9208 121.628C79.6098 121.939 79.2988 122.25 78.9878 122.561C78.6769 122.872 78.3659 123.183 78.0549 123.494C77.1219 124.116 76.189 123.183 76.189 122.25C76.189 121.628 76.189 121.006 76.189 120.695C76.189 120.073 76.5 119.45 76.8109 119.139C77.1219 118.206 77.7439 117.584 78.0549 116.651C78.9879 115.095 79.9208 113.54 81.1648 112.296C81.4757 111.674 82.0977 111.363 82.7197 111.052C83.6527 110.74 84.5856 111.052 85.2076 111.985C85.5186 112.296 85.2076 113.229 84.8966 113.851ZM67.7923 109.185C67.4813 110.429 66.2374 111.363 65.3044 112.296C64.6824 112.918 63.7495 113.851 63.1275 114.784L62.8165 115.095L62.1946 115.718C61.8836 116.029 61.5726 116.651 61.2616 116.962C60.6396 117.895 60.0176 118.828 59.7067 119.761C59.0847 121.006 57.8407 121.006 56.5968 120.695C55.3528 120.073 55.3528 118.828 55.6638 117.584C56.5968 115.406 57.8407 113.54 59.0847 111.674C59.7067 110.74 60.6396 109.496 61.5726 108.563C61.8836 108.252 62.1946 107.63 62.8165 107.319C63.4385 106.697 64.0605 106.074 64.9934 106.074C65.9264 106.074 66.5484 106.074 67.1703 106.697C67.7923 107.319 68.1033 108.252 67.7923 109.185ZM113.818 89.8989C113.507 90.521 113.196 91.1431 112.574 91.4542C111.33 92.0763 110.398 93.0095 109.154 93.6317C108.532 93.9427 107.91 94.2538 107.599 94.876C107.288 95.187 106.977 95.187 106.355 95.4981C106.044 95.4981 105.733 95.8092 105.422 95.8092C104.8 95.8092 104.489 95.8092 104.178 95.4981C103.867 95.187 103.867 94.5649 104.178 93.9427C104.178 93.6317 104.489 93.3206 104.489 93.0095C104.8 92.6985 105.111 92.3874 105.422 92.0763C105.733 91.4542 106.355 91.1431 106.666 90.521C107.599 89.5878 108.532 88.6546 109.465 87.4103C110.398 86.166 112.263 86.4771 113.196 87.7214C113.818 88.3435 114.129 89.2767 113.818 89.8989ZM106.355 121.628C106.044 121.939 105.733 122.25 105.422 122.561C105.111 122.872 104.489 123.183 103.867 123.183C102.934 123.494 102.312 122.561 102.312 121.628C102.312 121.006 102.623 120.695 102.934 120.384C103.245 120.073 103.245 119.761 103.556 119.45C103.867 118.828 104.489 118.206 104.8 117.584C105.111 116.962 105.733 116.34 106.044 115.406C106.355 115.095 106.355 114.784 106.666 114.162C106.977 113.54 107.599 113.229 108.221 112.918C109.465 112.296 111.33 113.229 111.33 114.473C111.33 114.784 111.33 115.095 111.33 115.406C111.33 115.718 111.02 116.029 110.709 116.34C110.398 116.651 110.087 117.273 109.776 117.584C109.154 118.206 108.532 118.828 108.221 119.761C107.599 120.384 106.977 121.006 106.355 121.628ZM124.703 132.204C124.392 132.826 123.77 133.448 123.459 134.382C123.148 135.004 122.837 135.315 122.526 135.626L121.282 136.559C120.66 137.181 119.727 137.181 119.105 136.87C118.794 136.559 118.483 136.559 118.172 135.937V135.626V135.004C118.172 134.693 118.172 134.382 118.172 133.76C118.172 133.448 118.172 133.137 118.483 132.515L118.794 131.893C119.105 130.96 119.105 130.338 119.416 129.405C119.416 128.782 119.727 128.471 120.038 128.16C120.349 127.849 120.66 127.538 120.971 127.538C121.282 127.227 121.593 127.227 122.215 127.227C122.526 127.227 123.148 127.227 123.459 127.538C123.77 127.538 124.081 127.849 124.392 128.16C124.703 128.471 125.014 129.094 125.014 129.405C125.014 130.649 125.014 131.582 124.703 132.204ZM145.228 118.517C145.539 118.828 145.85 119.139 145.85 119.761C146.161 120.695 145.85 121.628 145.228 122.25C144.606 122.872 143.673 123.805 143.051 124.427C142.74 124.739 142.429 125.361 142.118 125.672L141.496 126.294C141.185 126.605 140.874 126.916 140.563 126.916C140.252 127.227 139.63 127.227 139.319 127.227C139.008 127.227 138.697 126.916 138.386 126.916C137.764 126.294 137.453 125.672 137.764 124.739C137.764 124.427 138.075 123.805 138.386 123.494L139.008 122.872C139.319 122.561 139.63 121.939 139.941 121.628C140.563 120.695 141.185 120.073 141.807 119.139C141.807 118.828 142.118 118.517 142.429 118.517L143.051 118.206C143.673 117.895 143.984 117.895 144.606 118.206C144.606 118.206 144.917 118.206 145.228 118.517ZM140.563 61.5916C140.874 62.2137 141.185 63.1469 141.496 64.0802C142.118 64.3912 142.429 65.0134 142.118 65.9466C142.74 67.813 143.362 69.6794 143.362 71.2347C143.673 72.7901 143.673 74.3454 143.362 75.9008C143.051 77.145 143.051 78.3893 143.051 79.6336C143.051 80.8779 142.74 82.1221 142.74 83.3664C142.74 83.9885 142.74 84.9218 142.429 85.5439C141.807 86.4771 141.185 87.0992 140.563 87.7214C142.118 79.0115 141.807 70.3015 139.319 61.9027C139.63 62.8359 140.252 63.458 140.874 63.7691C141.185 63.1469 140.874 62.5248 140.563 61.5916C139.63 59.7252 139.008 57.8588 138.075 55.9924C139.319 57.8588 139.941 59.7252 140.563 61.5916ZM83.0307 26.7519C81.7867 27.063 80.5428 27.374 79.6098 27.374C78.3659 27.6851 77.1219 27.6851 76.189 27.9962C75.567 27.9962 74.945 27.9962 74.323 27.9962L72.4571 28.3073H72.1461C72.7681 27.9962 73.3901 27.6851 74.0121 27.6851L73.0791 27.9962C72.4571 27.9962 71.8352 28.3073 71.5242 28.6183C70.5912 28.6183 69.9692 28.6183 69.0363 28.9294L69.3473 28.6183C69.9692 27.9962 70.9022 27.063 71.5242 26.4408C71.8352 26.1298 72.4571 25.8187 72.7681 25.5076C76.189 25.1966 79.9208 25.8187 83.0307 26.7519ZM73.3901 15.5534C75.567 16.1756 78.6769 16.7977 80.2318 17.7309C79.2988 18.042 78.3659 18.042 77.1219 17.4198C77.7439 17.7309 78.0549 17.7309 78.9878 18.042C74.634 18.042 68.7253 17.7309 63.4385 18.3531C66.8594 17.4198 69.9692 16.1756 73.3901 15.5534ZM67.1703 11.5095H68.1033C64.3715 12.4427 60.9506 13.687 57.5298 15.2424C60.6396 13.9981 64.0605 12.4427 67.1703 11.5095ZM20.2113 102.031C19.9003 100.786 19.5893 99.542 19.2784 98.2977C18.6564 95.8092 18.0344 93.3206 17.7234 90.521C17.4124 88.0324 17.4124 85.2328 17.4124 82.7443C17.4124 81.5 17.7234 80.2557 18.0344 79.0115C18.3454 77.7672 18.3454 76.5229 18.9674 75.2786C18.9674 76.2118 18.9674 76.834 19.2784 77.7672C19.2784 78.7004 18.9674 79.6336 18.9674 80.5668C18.9674 80.8779 18.9674 81.1889 18.9674 81.5C18.3454 89.5878 18.9674 97.6756 21.1443 106.074C20.8333 104.519 20.5223 103.275 20.2113 102.031ZM19.5893 86.4771C19.9003 87.7214 19.9003 88.6546 20.2113 89.8989C20.2113 90.8321 19.9003 91.4542 19.9003 92.3874C19.9003 90.2099 19.5893 88.3435 19.5893 86.4771ZM10.5707 65.0134C10.2597 62.8359 10.2597 60.6584 10.8817 58.792C11.5037 56.9256 12.4366 55.6813 13.3696 54.126C15.2355 51.3263 17.7234 49.4599 18.9674 46.6603C22.6992 39.1947 27.675 32.6622 33.8947 26.7519C38.5595 22.3969 43.8463 18.6641 49.1331 15.5534C46.3342 17.1088 43.8463 18.9752 41.0474 20.8416C47.2672 16.4866 53.7979 13.376 61.5726 11.1985C59.3957 13.0649 53.4869 14.9313 52.8649 16.7977C53.7979 16.1756 55.0419 15.8645 55.9748 15.2424C55.0419 15.8645 53.7979 16.1756 52.8649 16.7977C43.2243 21.7748 34.5167 28.3073 27.053 36.395C19.9003 45.105 13.9916 54.7481 10.5707 65.0134ZM27.675 101.719C27.675 102.031 27.986 102.342 27.986 102.653C25.1871 93.6317 25.1871 83.9885 27.053 74.9676C25.4981 88.0324 28.608 101.097 34.5167 112.607C33.5838 111.985 32.6508 111.052 31.7178 109.807L33.5838 112.918L35.4497 115.718C36.6936 117.584 38.2486 119.45 39.8035 121.317C40.4255 121.939 41.0474 122.25 41.6694 122.872H41.0474L40.7365 122.561L41.0474 122.872C40.7365 122.872 40.1145 122.872 39.8035 122.872C39.8035 122.25 40.1145 122.25 41.0474 122.872L39.4925 121.317C38.2486 120.384 36.6936 119.139 35.7607 117.895C34.5167 116.651 33.5838 115.406 32.6508 113.851C31.7178 112.296 31.0959 110.429 30.1629 108.874C29.2299 107.008 28.9189 105.452 28.297 103.586C27.986 102.964 27.675 102.342 27.675 101.719ZM47.2672 142.158C43.5353 140.292 40.1145 138.426 36.6936 136.248C35.7607 135.626 34.8277 135.004 33.8947 134.071C35.1387 135.004 36.3826 135.626 37.6266 136.559C40.4255 138.737 43.8463 140.603 47.2672 142.158ZM51.932 153.046C45.7122 151.179 39.8035 148.38 34.5167 145.269C37.3156 146.824 40.1145 148.38 43.2243 149.624C36.0716 146.202 30.4739 142.158 24.8761 136.248C27.675 137.492 32.0288 141.536 33.8947 140.914C33.2728 140.292 32.3398 139.67 31.7178 139.359C32.3398 139.981 33.2728 140.292 34.2057 140.914H33.8947C42.6024 146.824 52.554 151.179 63.1275 153.668C63.4385 153.668 63.7495 153.979 64.0605 153.979C74.945 156.468 86.1405 157.09 97.3361 155.534C95.4702 156.779 93.6042 157.712 91.7383 158.023C89.8724 158.334 88.0065 158.334 86.4515 158.023C83.0307 157.712 80.2318 156.468 77.1219 156.468C72.4571 156.468 67.7923 156.156 63.1275 155.534C59.0847 154.912 55.3528 153.979 51.932 153.046Z" fill="#0BE4CF"/>
</g>
<defs>
<clipPath id="clip0_1312_846">
<rect width="167" height="163" fill="white"/>
</clipPath>
</defs>
</svg>
