<svg width="134" height="159" viewBox="0 0 134 159" fill="none" xmlns="http://www.w3.org/2000/svg">
<g clip-path="url(#clip0_1845_130)">
<path d="M60.5781 74.3975C61.2366 74.3975 61.8951 74.7267 62.8828 74.7267C62.2243 74.7267 61.2366 74.3975 60.5781 74.3975Z" fill="#E7E7E7"/>
<path d="M48.0658 32.9189C47.078 32.9189 46.4196 33.9065 45.7611 34.2357C45.4319 34.5649 45.1026 35.2233 44.4441 35.5525C43.4564 36.5401 42.7979 37.5276 41.8102 38.8444C40.4933 40.8196 39.1763 42.7947 38.1886 45.0991C37.5301 46.0866 37.8594 47.7326 39.1763 48.391C40.164 49.0494 41.8102 48.7202 42.4687 47.4034C43.1272 46.4158 43.4564 45.4283 44.1149 44.4407C44.4441 44.1115 44.7734 43.4531 45.1026 43.1239L45.7611 42.4655L46.0903 42.1363C46.7488 41.1488 47.7365 40.4904 48.395 39.5028C49.3827 38.5152 50.6997 37.5276 51.0289 36.2109C51.3581 35.2233 51.0289 34.5649 50.3704 33.9065C49.712 32.9189 49.0535 32.9189 48.0658 32.9189Z" fill="#00CAF9"/>
<path d="M45.4385 66.4967C45.7678 66.1675 45.7678 65.1799 45.7678 64.8507C45.7678 64.1923 45.1093 63.8631 44.7801 63.5339C43.4631 62.8756 42.4754 63.2047 41.8169 64.1923C41.1584 65.1799 40.8292 65.8383 40.1707 66.8259C39.5122 67.4842 39.183 68.1426 38.5245 69.1302C37.8661 69.7886 37.2076 70.7762 36.8783 71.4346C36.5491 71.7638 36.2199 72.4221 36.2199 72.7513C36.2199 73.0805 35.8906 73.4097 35.8906 73.7389V74.7265C35.8906 75.7141 36.8783 76.3725 37.8661 76.0433L38.5245 75.7141L39.183 75.0557C39.5122 74.7265 39.8415 74.3973 40.1707 74.0681C40.8292 73.4097 41.4877 72.4221 42.1462 71.4346C42.8046 70.7762 43.1339 70.1178 43.7923 69.4594C44.1216 69.1302 44.4508 68.801 44.7801 68.1426C44.7801 67.4843 45.1093 67.1551 45.4385 66.4967Z" fill="#00CAF9"/>
<path d="M66.5078 37.8577C65.8493 38.1869 65.1908 38.516 64.8616 39.1744C63.5446 40.4912 62.5569 42.1372 61.5692 43.7831C61.2399 44.7707 60.5815 45.4291 60.2522 46.4167C59.923 47.0751 59.923 47.4042 59.5938 48.0626C59.5938 48.721 59.5938 49.3794 59.5938 49.7086C59.5938 50.6962 60.9107 51.6837 61.5692 51.0254C61.8984 50.6962 62.2277 50.367 62.5569 50.0378C62.8861 49.7086 63.2154 49.3794 63.5446 49.0502C64.2031 48.3918 64.8616 47.4042 65.1908 46.4167C65.52 46.0875 65.8493 45.7583 65.8493 45.4291L66.1785 45.0999L66.5078 44.7707C67.1662 44.1123 67.8247 43.1247 68.4832 42.4664C68.8124 42.1372 69.1417 41.808 69.1417 41.1496C69.4709 40.4912 69.4709 39.1744 69.1417 38.516C68.4832 37.8577 67.4955 37.5285 66.5078 37.8577Z" fill="#00CAF9"/>
<path d="M69.1395 70.4477L69.4687 70.1185C70.1272 69.4601 70.4564 69.1309 70.4564 68.1433C70.4564 67.8141 70.4564 67.4849 70.4564 67.1557C70.1272 66.1682 69.1395 65.5098 68.1517 65.5098C67.8225 65.5098 67.164 65.5098 66.8348 65.839C66.5055 66.1682 66.1763 66.1682 65.8471 66.4973L65.5178 66.8265L64.8594 67.4849C64.5301 68.1433 64.2009 68.4725 63.8716 69.1309C63.5424 69.7893 63.2132 70.7768 63.2132 71.4352L62.5547 72.752C62.5547 73.4104 62.5547 74.0688 62.8839 74.398V74.7272C63.2132 75.3855 63.8716 75.3855 64.5301 75.3855C64.8594 75.3855 65.5178 75.3855 65.8471 75.0563C66.1763 74.7272 66.1763 74.7272 66.5055 74.398L67.164 73.4104L66.8348 73.7396C67.164 73.0812 67.8225 72.4228 68.1517 71.7644C68.481 71.4352 68.8102 71.106 69.1395 70.4477Z" fill="#00CAF9"/>
<path d="M93.8357 47.4038C94.4942 46.7455 95.1527 46.0871 95.4819 45.0995C95.8112 44.7703 96.1404 44.1119 96.4696 43.7827C96.7989 43.4535 96.7989 43.1243 97.1281 42.7951C97.1281 42.4659 97.1281 42.1368 97.1281 41.8076C97.1281 40.1616 95.1527 39.174 93.8357 40.1616C93.1773 40.4908 92.848 40.82 92.1895 41.4784C91.8603 41.8076 91.8603 42.1368 91.5311 42.7951C91.2018 43.4535 90.5433 44.1119 90.2141 45.0995C89.8849 45.7579 89.2264 46.4163 88.8972 47.0746C88.5679 47.4038 88.5679 47.733 88.2387 48.0622C87.9094 48.3914 87.9094 49.0498 87.5802 49.379C87.251 50.3666 88.2387 51.3541 89.2264 51.025C89.8849 50.6958 90.2141 50.6958 90.8726 50.3666C91.2018 50.0374 91.5311 49.7082 91.8603 49.379C92.5188 48.7206 93.1773 48.0622 93.8357 47.4038Z" fill="#00CAF9"/>
<path d="M92.8459 75.0554C91.8582 74.397 90.5412 74.7262 89.8828 75.7138C87.5781 79.0057 85.6027 82.2977 83.298 85.9188C82.9687 86.5772 82.9688 87.2355 82.9688 87.8939C83.298 88.5523 83.6272 89.2107 83.9565 89.5399C85.2734 90.1983 86.9196 89.8691 87.5781 88.5523C88.2366 87.5647 88.5658 86.5772 89.2243 85.5896C90.5412 82.956 92.1874 80.3225 93.5044 78.0182C94.4921 77.0306 94.1629 75.7138 92.8459 75.0554Z" fill="#00CAF9"/>
<path d="M65.1908 98.7576C64.8615 99.0868 64.2031 99.416 63.8738 99.7452C63.5446 100.074 63.2154 100.404 62.8861 100.733C62.2276 101.391 61.5692 102.379 60.9107 103.366C59.923 105.012 58.606 106.329 57.6183 107.975C57.2891 108.633 57.2891 109.621 57.2891 110.279C57.6183 110.938 57.9475 111.596 58.606 111.925C59.923 112.584 61.8984 112.255 62.8861 110.938C63.8738 109.292 64.5323 107.646 65.52 106C65.8493 105.012 66.5077 104.025 66.837 103.037C66.837 102.708 67.1662 102.379 67.1662 101.72C67.1662 101.391 67.4955 100.733 67.4955 100.404C67.4955 99.7452 67.4955 99.0868 66.837 98.7576C66.5077 98.7576 65.8493 98.4284 65.1908 98.7576Z" fill="#00CAF9"/>
<path d="M110.623 56.9505C110.293 56.6213 109.964 56.2921 109.635 56.2921C109.306 55.9629 108.977 55.9629 108.647 55.9629C108.318 55.9629 107.66 55.9629 107.33 56.2921C107.001 56.2921 106.672 56.6213 106.343 56.9505C106.013 57.2797 105.684 57.938 105.684 58.2672C105.355 59.2548 105.355 59.9132 105.026 60.9008L104.696 61.5592C104.696 61.8884 104.696 62.2175 104.367 62.8759C104.367 63.2051 104.367 63.5343 104.367 64.1927V64.8511L104.696 65.1803C105.026 65.5095 105.355 65.8387 105.684 66.1679C106.343 66.4971 107.33 66.4971 107.989 65.8387L108.977 64.8511C109.306 64.5219 109.635 63.8635 109.964 63.5343C110.293 62.8759 110.952 62.2175 111.281 61.23C111.61 60.5716 111.94 59.584 111.61 58.9256C111.281 57.6089 110.952 57.2797 110.623 56.9505Z" fill="#00CAF9"/>
<path d="M122.151 85.2608C121.822 84.9316 121.164 84.9316 120.834 84.9316C120.176 84.9316 119.517 85.2608 118.859 85.9192C118.2 86.5776 117.542 87.5652 117.213 88.2236C116.883 88.882 116.554 89.5403 115.896 90.1987C115.567 90.8571 115.237 91.5155 114.908 92.1739C114.579 92.5031 114.579 93.1615 114.25 93.8199C114.25 94.149 113.92 94.4782 113.92 95.1366C113.591 96.1242 113.92 97.1118 114.908 97.441C115.896 97.7702 116.554 97.7702 117.213 97.1118C117.871 96.4534 118.53 96.1242 118.859 95.4658C119.188 94.8074 119.847 94.149 120.176 93.4907C120.834 92.8323 121.493 91.8447 121.822 91.1863C122.151 90.8571 122.151 90.5279 122.481 90.1987C122.81 89.5403 123.139 89.2111 123.139 88.5528C123.798 87.236 123.468 85.9192 122.151 85.2608Z" fill="#00CAF9"/>
<path d="M102.071 116.206C101.742 115.547 101.413 114.889 100.754 114.56C100.096 114.23 99.4375 114.23 98.779 114.23C98.1205 114.56 97.462 114.889 97.1328 115.547C96.4743 116.535 96.1451 117.522 95.8158 118.51C95.4866 119.498 95.1574 120.156 94.8281 121.144V121.473V122.131C94.8281 122.46 95.1574 122.789 95.4866 123.119C95.8158 123.448 96.4743 123.448 96.8036 123.119C97.1328 123.119 97.1328 122.789 97.462 122.789C98.779 121.144 100.425 119.827 101.413 118.181C102.071 117.522 102.071 116.864 102.071 116.206Z" fill="#00CAF9"/>
<path d="M95.1487 13.1678C94.161 14.1554 93.1732 15.143 92.1855 16.4598C91.8563 17.1181 91.1978 17.4473 90.8686 18.1057C90.5393 18.4349 90.2101 18.7641 89.8808 19.0933C89.8808 19.4225 89.5516 19.7517 89.5516 20.0809C89.2224 20.7393 89.2224 21.0684 89.5516 21.7268C89.8809 22.056 90.5393 22.3852 90.8686 22.056C91.1978 22.056 91.527 21.7268 91.8563 21.7268C92.1855 21.7268 92.844 21.3976 93.1732 21.0684C93.8317 20.7393 94.4902 20.4101 94.8194 19.7517C96.1364 19.0933 97.1241 18.1057 98.441 17.4473C99.0995 17.1181 99.4288 16.4598 99.758 15.8014C100.087 15.143 99.758 14.1554 99.4288 13.497C98.1118 12.1802 96.1364 12.1802 95.1487 13.1678Z" fill="#00CAF9"/>
<path d="M39.8337 105.67C40.1629 105.341 40.4921 105.012 40.8214 105.012L41.4798 104.354C41.8091 104.025 41.8091 103.695 42.1383 103.037C42.4676 101.72 41.4798 100.074 39.8337 100.074C39.5044 100.074 39.1752 100.074 38.8459 100.074C38.1875 100.074 37.8582 100.733 37.529 101.062C37.1997 101.391 36.8705 101.72 36.8705 102.049C36.212 102.708 35.5536 103.695 35.2243 104.354C34.2366 106 33.9074 107.646 33.5781 109.292C33.5781 109.95 33.5781 110.938 34.5658 111.267C35.2243 111.596 36.212 111.267 36.5413 110.608C36.8705 109.95 37.1997 109.292 37.8582 108.962L38.1875 108.633C38.5167 108.304 38.8459 107.646 39.1752 107.316L38.8459 107.646C38.5167 106.658 39.1752 106 39.8337 105.67Z" fill="#00CAF9"/>
<path d="M49.0569 153.733L49.7153 153.075L50.3738 152.416C50.7031 152.087 51.0323 151.429 51.3615 151.1C51.6908 150.441 51.6908 149.124 51.0323 148.795C50.3738 148.137 49.3861 148.137 48.7276 148.466H48.3984C47.4107 148.795 46.423 149.783 46.0937 150.77C45.7645 151.429 45.4353 152.087 45.106 152.746C44.4475 154.391 43.7891 156.037 43.7891 158.013C43.7891 158.671 44.4475 159.329 45.106 159.659C45.7645 159.659 46.423 159.329 46.7522 158.671L47.0814 158.342V158.013C47.0814 157.683 47.4107 157.354 47.4107 157.025C47.7399 156.367 48.0692 155.708 48.7276 155.05V154.721L49.0569 153.733ZM48.7276 147.808H49.3861H48.7276Z" fill="#00CAF9"/>
<path d="M20.0867 90.5278C21.0744 89.5402 21.0744 87.8943 20.0867 86.9067C19.099 85.9191 17.4528 85.9191 16.4651 86.9067C15.1481 88.2235 13.8312 89.5402 12.8434 91.1862C11.8557 92.8322 11.1972 94.4781 10.5388 96.1241C10.2095 97.1117 10.868 98.4284 11.8557 98.7576C12.8434 99.0868 14.1604 98.7576 14.4896 97.7701C14.8189 96.7825 15.4773 96.1241 15.8066 95.1365C16.1358 94.4781 16.7943 93.8197 17.1235 93.1614C18.4405 92.503 19.099 91.5154 20.0867 90.5278Z" fill="#00CAF9"/>
<path d="M56.9606 12.5091L57.9483 11.8507C58.2776 11.5216 58.6068 11.5216 58.936 11.1924L59.2653 10.8632C59.9238 10.2048 60.253 9.5464 60.9115 8.88802C61.2407 8.22963 61.8992 7.57125 62.2284 7.24205C62.2284 6.58367 62.5577 6.25448 62.8869 5.92528C63.2161 5.59609 63.5454 5.2669 63.5454 4.60851C63.8746 3.95013 63.8746 3.29174 63.5454 2.63336C63.2161 1.64578 62.2284 0.658203 60.9115 0.658203C60.253 0.658203 59.9238 0.658203 59.2653 0.987396C58.6068 1.31659 58.2776 1.64578 57.9483 2.30417C57.6191 2.63336 57.6191 2.96255 57.2898 3.29174C56.9606 3.95013 56.3021 4.60851 55.9729 5.2669C55.6437 5.92528 54.9852 6.58367 54.6559 7.24205C54.3267 7.57125 53.9975 8.22963 53.9975 8.88802C53.9975 9.21721 53.6682 9.5464 53.6682 9.87559C53.339 10.534 53.6682 11.5216 54.3267 12.1799C55.3144 12.5091 56.3021 12.8383 56.9606 12.5091Z" fill="#00CAF9"/>
<path d="M19.4252 141.224C20.0837 140.895 20.7421 140.566 21.0714 139.907C21.4006 139.578 21.4006 139.249 21.7299 138.92C22.3883 138.261 22.7176 137.274 23.3761 136.615V136.286L23.7053 135.957C24.0345 135.628 24.3638 134.969 24.693 134.311C25.3515 133.653 25.6807 132.665 26.3392 132.007C26.6684 131.677 26.6684 130.69 26.6684 130.031C26.3392 129.373 26.3392 129.044 25.6807 128.715C24.693 128.056 23.0468 128.056 22.3883 129.044C21.0714 130.361 19.7544 132.007 18.7667 133.653C18.4375 134.311 17.779 135.299 17.4498 135.957C17.1205 136.286 17.1205 136.945 16.7913 137.274C16.4621 137.603 16.1328 138.261 16.1328 139.249C16.1328 139.907 16.462 140.566 17.1205 141.224C18.1082 141.553 18.7667 141.553 19.4252 141.224Z" fill="#00CAF9"/>
<path d="M76.7166 123.118C76.3873 123.118 76.0581 123.118 75.3996 123.118C74.7412 123.118 74.4119 123.447 74.0827 123.777C72.7657 124.764 71.4488 126.41 70.7903 127.727C70.4611 128.056 70.4611 128.714 70.1318 129.044L69.8026 130.031C69.4733 130.69 69.8026 131.019 69.8026 131.677C69.8026 132.006 69.8026 132.336 70.1318 132.665C70.1318 133.323 70.4611 133.652 71.1195 133.982C71.4488 134.64 72.4365 134.64 72.7657 134.311C73.095 133.982 73.4242 133.652 73.7534 133.323C74.0827 132.994 74.7411 132.665 75.0704 132.006C75.3996 131.348 75.7289 130.69 76.0581 130.031C76.7166 129.373 77.0458 128.714 77.7043 128.385C78.3628 128.056 78.692 127.398 79.0213 126.739C79.3505 125.752 79.0212 124.764 78.3628 124.106C78.0335 123.447 77.3751 123.118 76.7166 123.118Z" fill="#00CAF9"/>
<path d="M130.052 45.758L129.723 46.0872C129.394 46.4164 129.064 46.4164 129.064 46.7456C128.406 47.7331 127.747 48.3915 127.089 49.3791C126.76 49.7083 126.43 50.3667 126.101 50.6959L125.443 51.3543C125.114 51.6835 125.114 52.0127 125.114 52.3418C124.784 53.3294 125.114 53.9878 125.772 54.6462C126.101 54.9754 126.43 54.9754 126.76 54.9754C127.418 54.9754 127.747 54.9754 128.077 54.6462C128.406 54.317 128.735 54.317 129.064 53.9878L129.723 53.3294C130.052 53.0002 130.381 52.3418 130.711 52.0127C131.369 51.3543 132.357 50.3667 133.015 49.7083C133.674 49.0499 134.003 48.0623 133.674 47.0748C133.674 46.7456 133.344 46.0872 133.015 45.758C132.686 45.4288 132.357 45.0996 131.698 45.0996C131.369 45.4288 130.711 45.4288 130.052 45.758Z" fill="#00CAF9"/>
</g>
<defs>
<clipPath id="clip0_1845_130">
<rect width="134" height="159" fill="white"/>
</clipPath>
</defs>
</svg>
